<?xml version="1.0" standalone="no"?>
<!DOCTYPE svg PUBLIC "-//W3C//DTD SVG 20010904//EN"
 "http://www.w3.org/TR/2001/REC-SVG-20010904/DTD/svg10.dtd">
<svg version="1.0" xmlns="http://www.w3.org/2000/svg"
 width="871.000000pt" height="569.000000pt" viewBox="0 0 871.000000 569.000000"
 preserveAspectRatio="xMidYMid meet">

<g transform="translate(0.000000,569.000000) scale(0.100000,-0.100000)"
fill="#000000" stroke="none">
<path d="M2037 3522 c-24 -26 -26 -392 -2 -392 13 0 15 27 15 185 0 172 1 185
19 195 23 12 449 14 468 2 6 -4 20 -32 30 -62 l18 -55 500 -5 500 -5 3 -369
c1 -203 0 -367 -3 -365 -3 3 -16 115 -30 250 -14 134 -29 254 -35 266 -6 14
-21 24 -42 28 -18 3 -249 4 -512 3 l-479 -3 -16 -46 c-29 -84 -10 -79 -317
-79 -150 0 -275 -3 -277 -7 -9 -17 85 -769 99 -790 l14 -23 800 0 799 0 15 22
c14 20 16 89 16 558 0 411 -3 541 -13 560 l-13 25 -496 3 -495 2 -13 46 c-22
77 -11 74 -289 74 -227 0 -249 -2 -264 -18z m1451 -360 c18 -12 106 -860 91
-878 -17 -20 -1561 -21 -1578 -1 -11 14 -102 746 -94 760 2 4 125 7 273 7
l269 0 20 26 c12 15 21 30 21 35 0 4 4 19 10 33 l10 26 482 0 c266 0 489 -4
496 -8z"/>
<path d="M2738 2833 l-107 -107 101 -108 c90 -97 128 -126 128 -98 0 5 -43 54
-94 108 l-95 98 95 95 c84 83 110 119 86 119 -4 0 -55 -48 -114 -107z"/>
<path d="M3136 2932 c-3 -5 38 -51 90 -103 51 -51 94 -98 94 -104 0 -6 -40
-51 -90 -100 -80 -80 -105 -115 -82 -115 4 0 56 48 115 108 l107 107 -108 108
c-59 59 -110 107 -114 107 -4 0 -9 -4 -12 -8z"/>
<path d="M3055 2918 c-3 -7 -36 -98 -75 -202 -38 -103 -70 -193 -70 -199 0
-30 25 24 84 183 35 96 69 187 75 203 7 18 7 27 0 27 -5 0 -12 -6 -14 -12z"/>
<path d="M4038 3256 l-68 -73 0 -217 0 -216 25 0 25 0 0 213 0 213 58 57 58
57 65 0 65 0 57 -64 57 -65 0 -205 c0 -199 1 -206 20 -206 19 0 20 7 20 223
l0 223 -68 67 -68 67 -89 -1 -90 -1 -67 -72z"/>
<path d="M4633 3231 l-93 -99 0 -56 0 -56 185 0 185 0 0 -26 c0 -18 -24 -51
-82 -115 l-82 -89 -118 0 c-111 0 -118 -1 -118 -20 0 -19 7 -20 128 -20 l127
0 98 98 97 97 0 58 0 57 -190 0 -190 0 0 28 c0 21 20 47 88 115 l87 87 118 0
c110 0 117 1 117 20 0 19 -7 20 -132 20 l-133 -1 -92 -98z"/>
<path d="M5380 3040 l0 -290 128 0 127 0 98 98 97 97 0 95 0 95 -97 98 -96 97
-128 0 -129 0 0 -290z m324 156 l86 -94 0 -63 0 -64 -86 -93 -86 -93 -97 3
-96 3 -3 235 c-1 129 0 240 2 247 4 9 33 13 99 13 l95 0 86 -94z"/>
<path d="M5920 3040 c0 -283 0 -290 20 -290 20 0 20 7 20 270 l0 270 94 0 93
0 86 -87 c67 -67 87 -94 87 -115 l0 -28 -90 0 c-83 0 -90 -1 -90 -20 0 -19 7
-20 115 -20 l115 0 0 58 0 57 -98 98 -97 97 -128 0 -127 0 0 -290z"/>
<path d="M5167 3002 c-48 -131 -87 -242 -87 -245 0 -4 8 -7 18 -7 14 0 35 48
102 232 101 276 96 258 73 258 -15 0 -35 -45 -106 -238z"/>
<path d="M4110 3040 c0 -19 7 -20 90 -20 83 0 90 1 90 20 0 19 -7 20 -90 20
-83 0 -90 -1 -90 -20z"/>
<path d="M3972 2503 c1 -34 3 -45 5 -26 3 23 10 33 26 36 l22 4 -22 2 c-36 2
-28 29 10 34 31 4 31 4 -5 5 l-38 2 2 -57z"/>
<path d="M4172 2503 c1 -36 3 -45 5 -25 5 40 22 41 48 3 11 -17 21 -28 24 -26
2 3 -4 14 -14 25 -9 10 -15 25 -12 33 4 10 -1 13 -19 9 -18 -3 -24 0 -24 13 0
13 6 16 25 13 14 -3 25 -1 25 3 0 5 -13 9 -30 9 l-30 0 2 -57z"/>
<path d="M4384 2535 c-9 -14 -14 -28 -11 -31 3 -3 8 4 12 16 4 12 16 25 28 30
17 7 18 9 5 9 -10 1 -25 -10 -34 -24z"/>
<path d="M4458 2544 c24 -17 29 -53 10 -72 -17 -17 -54 -15 -72 4 -9 8 -16 12
-16 7 0 -34 67 -44 93 -15 28 31 14 92 -21 92 -13 0 -12 -3 6 -16z"/>
<path d="M4630 2545 c0 -8 4 -15 9 -15 4 0 21 -18 36 -40 15 -22 30 -38 32
-36 4 4 -66 106 -73 106 -2 0 -4 -7 -4 -15z"/>
<path d="M4862 2553 c13 -3 18 -18 21 -56 l3 -52 2 52 c2 40 6 53 20 56 9 3
-1 5 -23 5 -22 0 -32 -2 -23 -5z"/>
<path d="M5230 2505 l0 -55 38 2 c36 1 36 1 5 5 -27 4 -33 9 -33 28 0 18 6 25
28 28 l27 4 -27 2 c-40 2 -36 29 5 34 31 4 31 4 -5 5 l-38 2 0 -55z"/>
<path d="M5442 2503 l1 -58 6 50 6 50 30 -47 c17 -27 33 -48 38 -48 4 0 6 26
5 58 l-1 57 -6 -50 -6 -50 -30 47 c-16 27 -33 48 -37 48 -5 0 -7 -26 -6 -57z"/>
<path d="M5670 2505 c0 -54 0 -55 29 -55 36 0 61 23 61 55 0 32 -25 55 -61 55
-29 0 -29 -1 -29 -55z m68 33 c29 -29 7 -78 -35 -78 -21 0 -23 5 -23 45 0 40
2 45 23 45 13 0 28 -5 35 -12z"/>
<path d="M6040 2505 c0 -54 1 -55 28 -55 16 0 35 6 44 13 17 14 33 52 18 42
-6 -3 -10 -12 -10 -20 0 -14 -21 -25 -51 -25 -16 0 -19 7 -19 45 0 41 2 45 24
45 14 0 32 -7 40 -16 9 -8 16 -12 16 -7 0 19 -25 33 -57 33 l-33 0 0 -55z"/>
<path d="M6270 2505 l0 -55 38 2 c36 1 36 1 5 5 -27 4 -33 9 -33 28 0 18 6 25
28 28 l27 4 -27 2 c-40 2 -36 29 5 34 31 4 31 4 -5 5 l-38 2 0 -55z"/>
<path d="M6470 2555 c0 -5 5 -17 10 -25 5 -8 10 -10 10 -5 0 6 -5 17 -10 25
-5 8 -10 11 -10 5z"/>
<path d="M6697 2553 c-16 -15 -5 -35 29 -49 42 -18 40 -40 -5 -38 -17 1 -28
-2 -25 -7 8 -14 50 -10 64 6 16 19 0 40 -35 49 -37 9 -33 39 4 34 17 -2 28 -1
25 4 -6 10 -48 11 -57 1z"/>
<path d="M6531 2498 l-12 -33 -15 25 -15 25 7 -25 c11 -44 23 -45 39 -6 9 21
14 40 12 43 -3 2 -10 -11 -16 -29z"/>
<path d="M5058 2483 c6 -2 18 -2 25 0 6 3 1 5 -13 5 -14 0 -19 -2 -12 -5z"/>
<path d="M1870 1980 l0 -40 2450 0 2450 0 0 40 0 40 -2450 0 -2450 0 0 -40z"/>
</g>
</svg>
